# xmcd CD database file
#
# Track frame offsets:
#	150
#	13927
#	32117
#	37797
#	57295
#	74060
#	79367
#	91022
#	105125
#	120235
#	125350
#	147237
#	165232
#
# Disc length: 2741 seconds
#
# Revision: 0
# Processed by: cddbd v1.5.1PL0 Copyright (c) Steve Scherf et al.
# Submitted via: CDex 1.51
#
DISCID=9c0ab30d
DTITLE=gentle voices from tibet - Lotus Flower
DYEAR=1900
DGENRE=General World
TTITLE0=Bone China
TTITLE1=White Mountain Side
TTITLE2=Lotus Flower(Part1)
TTITLE3=Green Grass And Wild Wind
TTITLE4=Robe In Heaven
TTITLE5=Lotus Flower(Part2)
TTITLE6=Bamboo Garden
TTITLE7=Voice In The Sky
TTITLE8=Shangri-La
TTITLE9=Lotus Flower(Part3)
TTITLE10=Dream In China
TTITLE11=Places Of The Holy
TTITLE12=Sparrow
EXTD=
EXTT0=
EXTT1=
EXTT2=
EXTT3=
EXTT4=
EXTT5=
EXTT6=
EXTT7=
EXTT8=
EXTT9=
EXTT10=
EXTT11=
EXTT12=
PLAYORDER=
